<svg xmlns="http://www.w3.org/2000/svg" version="1.1" xmlns:xlink="http://www.w3.org/1999/xlink" xmlns:svgjs="http://svgjs.com/svgjs" viewBox="0 0 140 140" width="140" height="140"><g transform="matrix(14,0,0,14,0,0)"><path d="M2.67,6.9a5.4,5.4,0,0,1-1.9.957A.4.4,0,0,0,.749,8.6C6.221,10.838,9.7,7.329,9.169,3.519l.809-1.484a.25.25,0,0,0-.228-.353H8.528A1.9,1.9,0,0,0,6.41.739c-1,.2-1.793,1.052-1.5,2.805,0,0-1.82.325-4.142-1.964A.4.4,0,0,0,.094,1.8,4.367,4.367,0,0,0,2.67,6.9Z" fill="#000000" stroke="none" stroke-linecap="round" stroke-linejoin="round" stroke-width="0"></path></g></svg>