<svg width="66" height="66" viewBox="0 0 66 66" xmlns="http://www.w3.org/2000/svg" fill="#0c9">
              <g fill="#231F20">
                <path d="M61.875 0h-45.375c-2.28 0-4.125 1.845-4.125 4.125v6.188h-8.25c-2.28 0-4.125 1.845-4.125 4.125v30.938c0 2.28 1.845 4.125 4.125 4.125h7.219c.57 0 1.031.461 1.031 1.031v11.344c0 1.668 1.003 3.174 2.546 3.81.511.213 1.047.315 1.579.315 1.071 0 2.126-.419 2.916-1.209l14.598-14.598s.532-.693 1.724-.693h15.824c2.28 0 4.125-1.845 4.125-4.125v-8.25h6.188c2.28 0 4.125-1.845 4.125-4.125v-28.875c0-2.28-1.845-4.125-4.125-4.125zm-8.25 45.375c0 1.14-.923 2.063-2.063 2.063h-15.824c-2.008 0-2.739 1.031-2.739 1.031l-14.438 14.438c-2.208 2.208-4.125.403-4.125-1.031v-12.375c0-1.14-.923-2.063-2.063-2.063h-8.25c-1.14 0-2.063-.923-2.063-2.063v-30.938c0-1.14.923-2.063 2.063-2.063h47.438c1.14 0 2.063.923 2.063 2.063v30.938zm10.313-12.375c0 1.14-.923 2.063-2.063 2.063h-6.188v-20.625c0-2.28-1.845-4.125-4.125-4.125h-37.125v-6.188c0-1.14.923-2.063 2.063-2.063h45.375c1.14 0 2.063.923 2.063 2.063v28.875zM13.406 24.75h13.406c.57 0 1.031-.461 1.031-1.031 0-.57-.461-1.031-1.031-1.031h-13.406c-.57 0-1.031.461-1.031 1.031 0 .57.461 1.031 1.031 1.031zM42.281 28.875h-28.875c-.57 0-1.031.461-1.031 1.031 0 .57.461 1.031 1.031 1.031h28.875c.57 0 1.031-.461 1.031-1.031 0-.57-.461-1.031-1.031-1.031zM35.063 35.063h-21.656c-.57 0-1.031.461-1.031 1.031 0 .57.461 1.031 1.031 1.031h21.656c.57 0 1.031-.461 1.031-1.031 0-.57-.461-1.031-1.031-1.031z"></path>
              </g>
            </svg>