<svg width="66" height="66" viewBox="0 0 66 66" xmlns="http://www.w3.org/2000/svg" fill="#0c9">
              <g fill="#231F20">
                <path d="M61.875 0h-47.438c-2.28 0-4.125 1.845-4.125 4.125v27.844h-6.188c-2.28 0-4.125 1.845-4.125 4.125v23.719c0 3.417 2.771 6.188 6.188 6.188h53.625c3.417 0 6.188-2.771 6.188-6.188v-55.688c0-2.28-1.845-4.125-4.125-4.125zm-59.813 59.813v-23.719c0-1.139.924-2.063 2.063-2.063h6.188v25.781c0 2.278-1.847 4.125-4.125 4.125s-4.125-1.847-4.125-4.125zm57.75 4.125h-49.023c.983-1.095 1.585-2.538 1.585-4.125v-55.688c0-1.139.924-2.063 2.063-2.063h47.438c1.139 0 2.063.924 2.063 2.063v55.688c0 2.278-1.847 4.125-4.125 4.125zM54.656 25.781h-33c-.57 0-1.031.461-1.031 1.031 0 .57.461 1.031 1.031 1.031h33c.57 0 1.031-.461 1.031-1.031 0-.57-.461-1.031-1.031-1.031zM54.656 19.594h-33c-.57 0-1.031.461-1.031 1.031 0 .57.461 1.031 1.031 1.031h33c.57 0 1.031-.461 1.031-1.031 0-.57-.461-1.031-1.031-1.031zM54.656 38.156h-33c-.57 0-1.031.461-1.031 1.031 0 .57.461 1.031 1.031 1.031h33c.57 0 1.031-.461 1.031-1.031 0-.57-.461-1.031-1.031-1.031zM54.656 44.344h-33c-.57 0-1.031.461-1.031 1.031 0 .57.461 1.031 1.031 1.031h33c.57 0 1.031-.461 1.031-1.031 0-.57-.461-1.031-1.031-1.031zM54.656 50.531h-33c-.57 0-1.031.461-1.031 1.031 0 .57.461 1.031 1.031 1.031h33c.57 0 1.031-.461 1.031-1.031 0-.57-.461-1.031-1.031-1.031zM54.656 31.969h-33c-.57 0-1.031.461-1.031 1.031 0 .57.461 1.031 1.031 1.031h33c.57 0 1.031-.461 1.031-1.031 0-.57-.461-1.031-1.031-1.031zM21.656 15.469h15.469c.57 0 1.031-.461 1.031-1.031 0-.57-.461-1.031-1.031-1.031h-15.469c-.57 0-1.031.461-1.031 1.031 0 .57.461 1.031 1.031 1.031z"></path>
              </g>
            </svg>