<svg xmlns="http://www.w3.org/2000/svg" fill="none" viewBox="0 0 24 24" height="24" width="24"><path stroke="#fff" stroke-linecap="round" stroke-linejoin="round" d="M0.5 8H23.5"></path><path stroke="#fff" d="M3.75 5.75C3.61193 5.75 3.5 5.63807 3.5 5.5C3.5 5.36193 3.61193 5.25 3.75 5.25"></path><path stroke="#fff" d="M3.75 5.75C3.88807 5.75 4 5.63807 4 5.5C4 5.36193 3.88807 5.25 3.75 5.25"></path><path stroke="#fff" d="M6.9248 5.75C6.78673 5.75 6.6748 5.63807 6.6748 5.5C6.6748 5.36193 6.78673 5.25 6.9248 5.25"></path><path stroke="#fff" d="M6.9248 5.75C7.06288 5.75 7.1748 5.63807 7.1748 5.5C7.1748 5.36193 7.06288 5.25 6.9248 5.25"></path><path stroke="#fff" d="M10.0996 5.75C9.96154 5.75 9.84961 5.63807 9.84961 5.5C9.84961 5.36193 9.96154 5.25 10.0996 5.25"></path><path stroke="#fff" d="M10.0996 5.75C10.2377 5.75 10.3496 5.63807 10.3496 5.5C10.3496 5.36193 10.2377 5.25 10.0996 5.25"></path><path stroke="#fff" d="M10.25 18C10.1119 18 10 17.8881 10 17.75C10 17.6119 10.1119 17.5 10.25 17.5"></path><path stroke="#fff" d="M10.25 18C10.3881 18 10.5 17.8881 10.5 17.75C10.5 17.6119 10.3881 17.5 10.25 17.5"></path><g><path stroke="#fff" d="M13.75 18C13.6119 18 13.5 17.8881 13.5 17.75C13.5 17.6119 13.6119 17.5 13.75 17.5"></path><path stroke="#fff" d="M13.75 18C13.8881 18 14 17.8881 14 17.75C14 17.6119 13.8881 17.5 13.75 17.5"></path></g><path stroke="#fff" stroke-linecap="round" stroke-linejoin="round" d="M21.5 3H2.5C1.39543 3 0.5 3.89543 0.5 5V19C0.5 20.1046 1.39543 21 2.5 21H21.5C22.6046 21 23.5 20.1046 23.5 19V5C23.5 3.89543 22.6046 3 21.5 3Z"></path><path stroke="#fff" stroke-linecap="round" stroke-linejoin="round" d="M15.9998 10.5L14.6198 15.67C14.5836 15.7658 14.5195 15.8486 14.4357 15.9074C14.3518 15.9663 14.2522 15.9986 14.1498 16H10.0698C9.97248 15.9991 9.87747 15.9704 9.79596 15.9172C9.71445 15.864 9.64986 15.7887 9.60979 15.7L8.53979 12.7C8.50652 12.6238 8.49279 12.5405 8.49985 12.4576C8.5069 12.3747 8.53452 12.2949 8.58019 12.2254C8.62587 12.1559 8.68816 12.0989 8.76143 12.0595C8.83469 12.0202 8.91662 11.9997 8.99979 12H15.5998"></path></svg>