<svg xmlns="http://www.w3.org/2000/svg" viewBox="0 0 24 24" height="24" width="24"><g><g><polyline points="13.05 8 11.38 13 6.38 13 4.88 8 13.05 8" fill="none" stroke="#fff" stroke-linecap="round" stroke-linejoin="round"></polyline><line x1="6.38" y1="8" x2="7.88" y2="5.5" fill="none" stroke="#fff" stroke-linecap="round" stroke-linejoin="round"></line><line x1="11.38" y1="8" x2="9.88" y2="5.5" fill="none" stroke="#fff" stroke-linecap="round" stroke-linejoin="round"></line></g><g><path d="M15.05,22l-2.17-3.59c-1.22-1.86,1.79-2.48,3.17.61V11.5a1.5,1.5,0,0,1,3,0v4.25l3.47,1.15a1.29,1.29,0,0,1,.9,1.52c-.12.49-.83,3.58-.85,3.58" fill="none" stroke="#fff" stroke-linecap="round" stroke-linejoin="round"></path><g><path d="M10.55,17h-9a1,1,0,0,1-1-1V3a1,1,0,0,1,1-1h19a1,1,0,0,1,1,1V13.25" fill="none" stroke="#fff" stroke-linecap="round" stroke-linejoin="round"></path><line x1="6.05" y1="20" x2="11.05" y2="20" fill="none" stroke="#fff" stroke-linecap="round" stroke-linejoin="round"></line><line x1="9.55" y1="17" x2="9.55" y2="20" fill="none" stroke="#fff" stroke-linecap="round" stroke-linejoin="round"></line></g></g></g></svg>