<svg width="256" height="256" viewBox="0 0 256 256" fill="none" xmlns="http://www.w3.org/2000/svg">
<circle cx="2" cy="2" r="2" fill="#BBBCC7"/>
<circle cx="2" cy="36" r="2" fill="#BBBCC7"/>
<circle cx="2" cy="70" r="2" fill="#BBBCC7"/>
<circle cx="2" cy="104" r="2" fill="#BBBCC7"/>
<circle cx="2" cy="138" r="2" fill="#BBBCC7"/>
<circle cx="2" cy="172" r="2" fill="#BBBCC7"/>
<circle cx="2" cy="206" r="2" fill="#BBBCC7"/>
<circle cx="2" cy="240" r="2" fill="#BBBCC7"/>
<circle cx="38" cy="2" r="2" fill="#BBBCC7"/>
<circle cx="38" cy="36" r="2" fill="#BBBCC7"/>
<circle cx="38" cy="70" r="2" fill="#BBBCC7"/>
<circle cx="38" cy="104" r="2" fill="url(#paint0_linear)"/>
<circle cx="38" cy="138" r="2" fill="#BBBCC7"/>
<circle cx="38" cy="172" r="2" fill="#BBBCC7"/>
<circle cx="38" cy="206" r="2" fill="#BBBCC7"/>
<circle cx="38" cy="240" r="2" fill="#BBBCC7"/>
<circle cx="74" cy="2" r="2" fill="#BBBCC7"/>
<circle cx="74" cy="36" r="2" fill="#BBBCC7"/>
<circle cx="74" cy="70" r="2" fill="#BBBCC7"/>
<circle cx="74" cy="104" r="2" fill="#BBBCC7"/>
<circle cx="74" cy="138" r="2" fill="#BBBCC7"/>
<circle cx="74" cy="172" r="2" fill="#BBBCC7"/>
<circle cx="74" cy="206" r="2" fill="#BBBCC7"/>
<circle cx="74" cy="240" r="2" fill="#BBBCC7"/>
<circle cx="110" cy="2" r="2" fill="#BBBCC7"/>
<circle cx="110" cy="36" r="2" fill="url(#paint1_linear)"/>
<circle cx="110" cy="70" r="2" fill="#BBBCC7"/>
<circle cx="110" cy="104" r="2" fill="#BBBCC7"/>
<circle cx="110" cy="138" r="2" fill="#BBBCC7"/>
<circle cx="110" cy="172" r="2" fill="#BBBCC7"/>
<circle cx="110" cy="206" r="2" fill="#BBBCC7"/>
<circle cx="110" cy="240" r="2" fill="#BBBCC7"/>
<circle cx="146" cy="2" r="2" fill="#BBBCC7"/>
<circle cx="146" cy="36" r="2" fill="#BBBCC7"/>
<circle cx="146" cy="70" r="2" fill="#BBBCC7"/>
<circle cx="146" cy="104" r="2" fill="#BBBCC7"/>
<circle cx="146" cy="138" r="2" fill="#BBBCC7"/>
<circle cx="146" cy="172" r="2" fill="#BBBCC7"/>
<circle cx="146" cy="206" r="2" fill="url(#paint2_linear)"/>
<circle cx="146" cy="240" r="2" fill="#BBBCC7"/>
<circle cx="182" cy="2" r="2" fill="#BBBCC7"/>
<circle cx="182" cy="36" r="2" fill="#BBBCC7"/>
<circle cx="182" cy="70" r="2" fill="#BBBCC7"/>
<circle cx="182" cy="104" r="2" fill="#BBBCC7"/>
<circle cx="182" cy="138" r="2" fill="#BBBCC7"/>
<circle cx="182" cy="172" r="2" fill="#BBBCC7"/>
<circle cx="182" cy="206" r="2" fill="#BBBCC7"/>
<circle cx="182" cy="240" r="2" fill="#BBBCC7"/>
<circle cx="218" cy="2" r="2" fill="#BBBCC7"/>
<circle cx="218" cy="36" r="2" fill="#BBBCC7"/>
<circle cx="218" cy="70" r="2" fill="#BBBCC7"/>
<circle cx="218" cy="104" r="2" fill="#BBBCC7"/>
<circle cx="218" cy="138" r="2" fill="#BBBCC7"/>
<circle cx="218" cy="172" r="2" fill="url(#paint3_linear)"/>
<circle cx="218" cy="206" r="2" fill="#BBBCC7"/>
<circle cx="218" cy="240" r="2" fill="#BBBCC7"/>
<circle cx="254" cy="2" r="2" fill="#BBBCC7"/>
<circle cx="254" cy="36" r="2" fill="#BBBCC7"/>
<circle cx="254" cy="70" r="2" fill="#BBBCC7"/>
<circle cx="254" cy="104" r="2" fill="#BBBCC7"/>
<circle cx="254" cy="138" r="2" fill="#BBBCC7"/>
<circle cx="254" cy="172" r="2" fill="#BBBCC7"/>
<circle cx="254" cy="206" r="2" fill="#BBBCC7"/>
<circle cx="254" cy="240" r="2" fill="url(#paint4_linear)"/>
<defs>
<linearGradient id="paint0_linear" x1="36" y1="102" x2="39.7519" y2="102" gradientUnits="userSpaceOnUse">
<stop offset="0.239583" stop-color="#00AFFF"/>
<stop offset="1" stop-color="#48DE6E"/>
</linearGradient>
<linearGradient id="paint1_linear" x1="108" y1="34" x2="111.752" y2="34" gradientUnits="userSpaceOnUse">
<stop offset="0.239583" stop-color="#00AFFF"/>
<stop offset="1" stop-color="#48DE6E"/>
</linearGradient>
<linearGradient id="paint2_linear" x1="144" y1="204" x2="147.752" y2="204" gradientUnits="userSpaceOnUse">
<stop offset="0.239583" stop-color="#00AFFF"/>
<stop offset="1" stop-color="#48DE6E"/>
</linearGradient>
<linearGradient id="paint3_linear" x1="216" y1="170" x2="219.752" y2="170" gradientUnits="userSpaceOnUse">
<stop offset="0.239583" stop-color="#00AFFF"/>
<stop offset="1" stop-color="#48DE6E"/>
</linearGradient>
<linearGradient id="paint4_linear" x1="252" y1="238" x2="255.752" y2="238" gradientUnits="userSpaceOnUse">
<stop offset="0.239583" stop-color="#00AFFF"/>
<stop offset="1" stop-color="#48DE6E"/>
</linearGradient>
</defs>
</svg>
