<svg xmlns="http://www.w3.org/2000/svg" width="116" height="35" viewBox="0 0 116 35" fill="none">
<path fill-rule="evenodd" clip-rule="evenodd" d="M75.238 11.4656C73.6496 11.4656 72.3304 12.0638 71.3881 13.0971V6H68.3459V25.3335H71.3881V16.3601C71.7381 15.0005 72.7342 14.1576 74.1073 14.1576C75.8034 14.1576 76.9341 15.3812 76.9341 17.2303V25.3335H80.084V16.768C80.084 13.5866 78.1456 11.4656 75.238 11.4656ZM49.0497 17.2847C55.6726 18.318 54.2457 25.6054 47.4075 25.6054C43.773 25.6054 41.35 23.9739 41 21.6082L43.9614 20.874C44.3383 22.2064 45.6306 23.1309 47.3536 23.1309C50.4766 23.1309 50.9343 20.6021 48.1074 20.0582L45.7921 19.6232C39.7077 18.4811 41 11.4928 47.3267 11.4928C50.5574 11.4928 52.738 13.0155 53.0611 15.2725L50.2074 16.0066C49.8843 14.7558 48.8882 13.9944 47.3267 13.9944C44.7153 13.9944 44.2845 16.4961 46.6806 16.904L49.0497 17.2847ZM57.2961 13.2874C58.2922 12.1454 59.6922 11.4928 61.3344 11.4928C64.8343 11.4928 67.1496 14.2935 67.1496 18.4811C67.1496 22.6687 64.8343 25.4694 61.3344 25.4694C59.6922 25.4694 58.2922 24.8168 57.2961 23.6748V31.0438H54.2539V11.7375H57.2961V13.2874ZM57.1615 18.4811C57.1615 21.0643 58.5614 22.8046 60.6613 22.8046C62.7074 22.8046 64.0535 21.0643 64.0535 18.4811C64.0535 15.8979 62.7074 14.1576 60.6613 14.1576C58.5614 14.1576 57.1615 15.8979 57.1615 18.4811ZM87.5616 23.0494C88.9346 23.0494 90.1192 22.2064 90.523 20.9284L93.0268 22.0433C92.1383 24.1642 90.0115 25.5782 87.6962 25.5782C83.5771 25.5782 81.2618 22.7502 81.2618 18.5083C81.2618 14.2935 83.7117 11.4928 87.4001 11.4928C91.3576 11.4928 93.7806 14.783 93.4575 19.7319V19.6504H84.2232C84.2232 21.6898 85.5693 23.0494 87.5616 23.0494ZM87.3193 14.0216C85.5424 14.0216 84.304 15.3812 84.2232 17.4206H90.4422C90.3346 15.3812 89.0692 14.0216 87.3193 14.0216ZM101.713 11.4656C100.124 11.4656 98.778 12.091 97.8896 13.1515V11.7375H94.8474V25.3335H97.8896V17.2303C97.8896 15.3812 99.3165 14.1576 100.959 14.1576C101.901 14.1576 102.574 14.3207 102.978 14.5111V11.6287C102.574 11.52 102.17 11.4656 101.713 11.4656ZM109.174 23.0494C110.547 23.0494 111.732 22.2064 112.135 20.9284L114.639 22.0433C113.751 24.1642 111.624 25.5782 109.309 25.5782C105.189 25.5782 102.874 22.7502 102.874 18.5083C102.874 14.2935 105.324 11.4928 109.012 11.4928C112.948 11.4928 115.366 14.7469 115.075 19.6504H105.836C105.836 21.6898 107.182 23.0494 109.174 23.0494ZM108.932 14.0216C107.155 14.0216 105.916 15.3812 105.836 17.4206H112.055C111.947 15.3812 110.682 14.0216 108.932 14.0216ZM99.1257 32.7824C99.1257 33.1539 98.9302 33.5917 98.5393 34.096C98.3453 34.3285 98.0729 34.5233 97.7219 34.6803C97.371 34.8373 96.9739 34.9158 96.5306 34.9158C95.5701 34.9158 94.8559 34.6139 94.388 34.0099C93.92 33.406 93.6861 32.5967 93.6861 31.5821C93.6861 30.5615 93.9385 29.7432 94.4434 29.1271C94.9513 28.5111 95.647 28.2031 96.5306 28.2031C96.9862 28.2031 97.3941 28.2862 97.7542 28.4522C98.1175 28.6183 98.3899 28.8206 98.5716 29.0592C98.9471 29.5816 99.1319 30.0074 99.1257 30.3365H98.2253C97.9297 29.4699 97.3648 29.0215 96.5306 28.9913C95.9056 28.9913 95.4254 29.2177 95.0899 29.6707C94.7574 30.1236 94.5896 30.7532 94.5865 31.5595C94.5865 32.3688 94.7543 32.9999 95.0899 33.4528C95.4285 33.9058 95.9087 34.1307 96.5306 34.1277C97.0108 34.1277 97.3879 33.9873 97.6619 33.7065C97.939 33.4226 98.1267 33.1146 98.2253 32.7824H99.1257ZM73.0945 34.8253L73.1361 29.3038C73.1361 29.2857 73.1407 29.2706 73.1499 29.2585C73.1592 29.2434 73.1699 29.2358 73.1822 29.2358C73.213 29.2358 73.233 29.2509 73.2423 29.2811L74.646 34.2002C74.7015 34.3904 74.8046 34.5414 74.9554 34.6531C75.1063 34.7649 75.2833 34.8207 75.4865 34.8207H75.5234C75.7235 34.8207 75.9005 34.7649 76.0544 34.6531C76.2084 34.5384 76.3115 34.3859 76.3638 34.1957L77.7445 29.2811C77.7537 29.2509 77.7753 29.2358 77.8091 29.2358C77.8215 29.2358 77.8322 29.2434 77.8415 29.2585C77.8507 29.2706 77.8553 29.2857 77.8553 29.3038V34.8253H78.7096V29.2132C78.7096 29.0381 78.6773 28.881 78.6126 28.7421C78.548 28.6002 78.4572 28.49 78.3402 28.4115C78.2263 28.33 78.0985 28.2892 77.9569 28.2892H77.8553C77.6552 28.2892 77.4798 28.345 77.3289 28.4568C77.1811 28.5655 77.0796 28.7134 77.0241 28.9007L75.5557 33.8424C75.5465 33.8725 75.5265 33.8876 75.4957 33.8876C75.4618 33.8876 75.4403 33.8725 75.431 33.8424L74.0134 28.9143C73.958 28.721 73.8533 28.5685 73.6994 28.4568C73.5486 28.345 73.3731 28.2892 73.173 28.2892C73.0068 28.2892 72.8575 28.3284 72.7251 28.407C72.5927 28.4855 72.4881 28.5942 72.4111 28.7331C72.3341 28.869 72.2956 29.0245 72.2956 29.1996L72.2402 34.8253H73.0945ZM83.026 32.0532C83.026 31.7452 82.9183 31.4629 82.7028 31.2062C82.4873 30.9525 82.1779 30.8257 81.7746 30.8257C81.3744 30.8257 81.0589 30.9631 80.828 31.2379C80.6002 31.5127 80.4863 31.7844 80.4863 32.0532V32.0985H83.026V32.0532ZM83.9634 32.479C83.9603 32.5484 83.9588 32.6013 83.9588 32.6375V32.7915H80.4863V32.8413C80.4863 33.1916 80.6033 33.4936 80.8373 33.7472C81.0712 34.0009 81.3806 34.1277 81.7654 34.1277C82.3472 34.1277 82.749 33.9118 82.9706 33.48H83.8618C83.7449 33.9329 83.4955 34.2862 83.1138 34.5399C82.732 34.7935 82.2826 34.9189 81.7654 34.9158C81.1005 34.9158 80.5694 34.6924 80.1723 34.2455C79.7752 33.7986 79.5766 33.2067 79.5766 32.4699C79.5766 31.7331 79.769 31.1443 80.1538 30.7034C80.5417 30.2625 81.0805 30.0421 81.77 30.0421C82.4596 30.0421 82.9983 30.2625 83.3862 30.7034C83.771 31.1503 83.9634 31.7422 83.9634 32.479ZM85.4527 34.8253H84.5846V30.1418H85.4112L85.3327 30.948H85.4112C85.4789 30.791 85.6451 30.5992 85.9099 30.3728C86.1777 30.1463 86.4825 30.033 86.8242 30.033L86.9073 30.0376L87.1012 30.0602V30.8891C87.0304 30.877 86.9827 30.8695 86.9581 30.8665H86.8149C86.3747 30.8665 86.0392 30.9948 85.8083 31.2515C85.5713 31.5081 85.4527 31.8011 85.4527 32.1302V34.8253ZM88.4497 34.8253H87.5954V30.1327H88.4497V34.8253ZM87.4615 28.8327C87.4615 28.6848 87.5154 28.5579 87.6231 28.4522C87.734 28.3466 87.8648 28.2937 88.0156 28.2937C88.1665 28.2937 88.2958 28.3466 88.4035 28.4522C88.5113 28.5579 88.5652 28.6848 88.5652 28.8327C88.5652 28.9807 88.5113 29.109 88.4035 29.2177C88.2958 29.3234 88.1665 29.3763 88.0156 29.3763C87.8648 29.3763 87.734 29.3234 87.6231 29.2177C87.5154 29.109 87.4615 28.9807 87.4615 28.8327ZM89.8162 28.7874H90.6474V30.1327H91.6494V30.8257H90.6474V33.3668C90.6474 33.5842 90.6951 33.7457 90.7905 33.8514C90.8891 33.9541 91.0568 34.0054 91.2939 34.0054C91.3277 34.0054 91.3908 34.0024 91.4832 33.9964C91.5632 33.9873 91.6186 33.9767 91.6494 33.9646V34.7392C91.6186 34.7513 91.5448 34.7664 91.4278 34.7845C91.317 34.8117 91.1846 34.8253 91.0307 34.8253C90.6335 34.8253 90.3195 34.712 90.0887 34.4855C89.8578 34.253 89.7423 33.9254 89.7423 33.5026V30.8257H88.8557V30.1327H89.8162V29.417V28.7874ZM99.728 34.8253H100.582V30.1327H99.728V34.8253ZM99.7557 28.4522C99.648 28.5579 99.5941 28.6848 99.5941 28.8327C99.5941 28.9807 99.648 29.109 99.7557 29.2177C99.8665 29.3234 99.9974 29.3763 100.148 29.3763C100.299 29.3763 100.428 29.3234 100.536 29.2177C100.644 29.109 100.698 28.9807 100.698 28.8327C100.698 28.6848 100.644 28.5579 100.536 28.4522C100.428 28.3466 100.299 28.2937 100.148 28.2937C99.9974 28.2937 99.8665 28.3466 99.7557 28.4522ZM101.39 34.8253H102.258V32.1302C102.258 31.8011 102.377 31.5081 102.614 31.2515C102.845 30.9948 103.18 30.8665 103.62 30.8665H103.764C103.788 30.8695 103.836 30.877 103.907 30.8891V30.0602L103.713 30.0376L103.63 30.033C103.288 30.033 102.983 30.1463 102.715 30.3728C102.451 30.5992 102.284 30.791 102.217 30.948H102.138L102.217 30.1418H101.39V34.8253ZM106.16 30.8257C106.785 30.8589 107.199 31.1564 107.402 31.718H108.303C108.183 31.2017 107.938 30.7925 107.569 30.4905C107.199 30.1886 106.73 30.0376 106.16 30.0376C105.461 30.0406 104.915 30.2625 104.521 30.7034C104.13 31.1443 103.935 31.7346 103.935 32.4744C103.935 33.2143 104.13 33.8061 104.521 34.25C104.915 34.6939 105.461 34.9158 106.16 34.9158C106.724 34.9158 107.19 34.7664 107.559 34.4674C107.929 34.1685 108.177 33.7593 108.303 33.2399H107.402C107.199 33.8016 106.785 34.0975 106.16 34.1277C105.742 34.1277 105.409 33.9752 105.163 33.6702C104.917 33.3652 104.793 32.9682 104.793 32.479C104.793 31.9898 104.917 31.5912 105.163 31.2832C105.409 30.9752 105.742 30.8227 106.16 30.8257ZM109.788 34.8253H108.933V28.2937H109.788V34.8253ZM113.58 31.2062C113.795 31.4629 113.903 31.7452 113.903 32.0532V32.0985H111.363V32.0532C111.363 31.7844 111.477 31.5127 111.705 31.2379C111.936 30.9631 112.252 30.8257 112.652 30.8257C113.055 30.8257 113.364 30.9525 113.58 31.2062ZM114.836 32.6375C114.836 32.6013 114.837 32.5484 114.841 32.479C114.841 31.7422 114.648 31.1503 114.263 30.7034C113.875 30.2625 113.337 30.0421 112.647 30.0421C111.958 30.0421 111.419 30.2625 111.031 30.7034C110.646 31.1443 110.454 31.7331 110.454 32.4699C110.454 33.2067 110.652 33.7986 111.049 34.2455C111.447 34.6924 111.978 34.9158 112.642 34.9158C113.16 34.9189 113.609 34.7935 113.991 34.5399C114.373 34.2862 114.622 33.9329 114.739 33.48H113.848C113.626 33.9118 113.224 34.1277 112.642 34.1277C112.258 34.1277 111.948 34.0009 111.714 33.7472C111.48 33.4936 111.363 33.1916 111.363 32.8413V32.7915H114.836V32.6375Z" fill="white"/>
<path d="M4.05659 28.1197C3.15711 26.88 3.12235 26.8318 2.59646 25.9139C2.78864 26.2581 3.01592 26.5814 3.27468 26.8788C3.61143 27.4886 4.00365 28.066 4.44638 28.6038L4.05659 28.1197Z" fill="white"/>
<path d="M2.59522 25.9145C2.37814 25.4977 2.09123 24.9421 1.89255 24.5164C0.00521699 20.2826 0.0429598 14.3373 1.96532 10.1453C2.22303 9.62786 2.57981 8.94581 2.86447 8.44322C3.6326 7.2532 3.75127 7.06983 4.5075 6.14567C4.13572 6.59415 3.79917 7.07069 3.50083 7.57104C0.350198 12.8224 0.248107 21.4672 3.27344 26.8793C3.01468 26.5819 2.7874 26.2586 2.59522 25.9145Z" fill="white"/>
<path d="M9.0932 32.5114C7.69815 31.6349 7.58377 31.5631 6.71251 30.8567C5.81764 30.1134 4.98347 29.0893 4.25414 27.7853C4.74369 28.1484 5.27521 28.4512 5.8372 28.6871C6.99615 30.7601 8.39893 32.1812 9.8959 32.9479L9.09395 32.5127" fill="white"/>
<path d="M4.25098 27.783C0.939795 21.8589 1.05324 12.3973 4.5006 6.65127C5.20017 5.48475 5.98386 4.56139 6.81587 3.87889C7.22964 3.56707 7.78011 3.1499 8.2079 2.85641C8.74731 2.52947 9.47201 2.10073 10.0285 1.8053C8.60273 2.51876 7.249 3.83039 6.10278 5.73716C2.35536 11.978 2.23683 22.2494 5.83181 28.681C5.26981 28.445 4.73829 28.1423 4.24874 27.7791" fill="white"/>
<path d="M12.8889 34.1367L12.6107 34.0527C10.6665 33.4455 8.81252 31.8197 7.33874 29.1825C8.06877 29.3582 8.81281 29.4693 9.56229 29.5147C11.3953 32.795 13.8004 34.5517 16.2491 34.7717C14.6887 34.5706 14.1637 34.5027 12.8889 34.1367Z" fill="white"/>
<path d="M7.33561 29.1821C3.58493 22.4729 3.71136 11.7576 7.61754 5.24764C9.08766 2.79782 10.8842 1.29429 12.7521 0.726972C13.3086 0.581936 14.0504 0.389687 14.6159 0.275085C15.1513 0.195716 15.867 0.0885891 16.4074 0.0378824C14.0383 0.228432 11.694 1.85352 9.8496 4.92718C5.83724 11.6133 5.70828 22.6206 9.56002 29.5138C8.81054 29.4684 8.06564 29.3577 7.33561 29.1821Z" fill="white"/>
<path d="M21.1947 34.5123C20.6009 34.6047 19.8066 34.7268 19.2079 34.7859C16.4238 35.0076 13.606 33.2474 11.5248 29.5242C12.4 29.4758 13.2713 29.3721 14.1335 29.2136C16.4731 33.3982 19.7658 35.0352 22.8623 34.0974C22.3632 34.2276 21.7036 34.4218 21.1947 34.5123Z" fill="white"/>
<path d="M11.5269 29.5235C7.67453 22.6313 7.8041 11.623 11.8173 4.93643C13.9195 1.43197 16.6713 -0.189499 19.3696 0.0529428C21.0623 0.271302 21.3223 0.303826 22.7307 0.687413L23.0089 0.771426C20.0072 -0.164687 16.7894 1.32789 14.4194 5.27867C10.5127 11.7878 10.3867 22.5028 14.1361 29.2127C13.2739 29.3712 12.4021 29.4751 11.5269 29.5235Z" fill="white"/>
<path d="M27.5871 31.8515C26.9998 32.2188 26.2052 32.6896 25.5942 33.0159C22.355 34.6386 18.726 33.1969 16.2306 28.7336C17.1295 28.4851 18.015 28.1906 18.8837 27.8513C21.5229 32.5727 25.5403 33.6218 28.8078 30.944C28.4437 31.2186 27.9693 31.6004 27.5871 31.8515Z" fill="white"/>
<path d="M16.23 28.7356C12.6348 22.3036 12.7559 12.0307 16.5 5.79113C19.0379 1.56313 22.5882 0.271392 25.7319 1.88012L26.5338 2.31526C27.9287 3.19142 28.0419 3.26327 28.9137 3.97051C25.7463 1.34005 21.8218 2.24026 19.1316 6.72161C15.6834 12.4681 15.5707 21.9281 18.8822 27.8538C18.0135 28.1931 17.1289 28.4871 16.23 28.7356Z" fill="white"/>
<path d="M32.7508 26.3786C31.9809 27.5696 31.8623 27.753 31.098 28.6881C27.9646 32.4187 23.6494 31.8176 20.9328 26.956C21.7924 26.5453 22.6377 26.0906 23.4571 25.5991C26.0483 30.2345 30.336 30.3472 33.0345 25.8495C33.2616 25.4699 33.4674 25.0781 33.6512 24.6757C33.3944 25.1927 33.0513 25.8835 32.7525 26.3776" fill="white"/>
<path d="M20.9329 26.9577C17.9073 21.5463 18.0092 12.9011 21.1605 7.64988C23.9318 3.03153 28.1388 2.57692 31.171 6.21748L31.5617 6.70226C32.4074 7.86851 32.4964 7.98994 33.0223 8.90778C33.2385 9.32394 33.5263 9.88018 33.7241 10.3064C33.5717 9.9648 33.4068 9.63334 33.2295 9.31645C30.6383 4.68108 26.3502 4.5686 23.6525 9.06578C20.9548 13.563 20.8664 20.9652 23.4579 25.6021C22.6385 26.0935 21.7933 26.5482 20.9336 26.959" fill="white"/>
<path d="M25.3381 24.3735C23.1397 20.4393 23.2131 14.1559 25.5049 10.3392C27.7967 6.52262 31.4336 6.61825 33.6329 10.5519C35.8322 14.4855 35.7577 20.7691 33.4664 24.5866C31.1751 28.4041 27.537 28.3074 25.3381 24.3735C25.5686 24.2109 25.7962 24.0454 26.0208 23.8771C26.3088 23.6612 26.5918 23.4407 26.8694 23.216C27.1033 23.0265 27.3334 22.834 27.5593 22.6386C29.2019 25.5832 31.9268 25.6529 33.6405 22.7983C35.3541 19.9437 35.41 15.2433 33.764 12.2978C32.118 9.3523 29.3962 9.28306 27.6823 12.1383C25.9685 14.9936 25.9136 19.6946 27.5593 22.6386C27.3334 22.834 27.1033 23.0265 26.8694 23.216C26.5918 23.4407 26.3088 23.6612 26.0208 23.8771C25.7962 24.0454 25.5686 24.2109 25.3381 24.3735Z" fill="white"/>
<path d="M29.1368 21.1559C27.9646 19.059 28.0029 15.7107 29.2246 13.676C30.4462 11.6412 32.3862 11.6921 33.5564 13.7896C34.7266 15.8871 34.6903 19.2348 33.4684 21.2691C32.2465 23.3034 30.307 23.2534 29.1368 21.1559C29.7578 20.5202 30.3398 19.8477 30.8797 19.1418C31.4094 20.0902 32.2876 20.1132 32.8393 19.1929C33.391 18.2725 33.4103 16.7573 32.8792 15.8086C32.3482 14.8599 31.4714 14.8372 30.9194 15.7571C30.3675 16.6771 30.3491 18.1928 30.8797 19.1418C30.3398 19.8477 29.7578 20.5202 29.1368 21.1559Z" fill="white"/>
</svg>